# xmcd
#
# Track frame offsets:
#	150
#	13640
#	25888
#	41223
#	55293
#	88790
#	105984
#	118639
#	129180
#	137083
#	149299
#
# Disc length: 2159 seconds
#
# Revision: 1
# Processed by: cddbd v1.5.2PL0 Copyright (c) Steve Scherf et al.
# Submitted via: EasyCDDAExtractor 11.1.0.1
#
DISCID=91086d0b
DTITLE=Various Artist - Missisippi Grind Vol 1: Gerry's Road Mix
DYEAR=2015
DGENRE=Blues
TTITLE0=Big Bill Broonzy - This Train
TTITLE1=Memphis Minnie - Dirty Mother For You
TTITLE2=James Hand - Don't Depend On Me
TTITLE3=Memphis Slim - Grinder Man Blues
TTITLE4=Junior Kimbrough - Leave Her Alone
TTITLE5=Jimmy Lee Harris - Dark Cloud Rising
TTITLE6=James Hand - Floor To Crawl
TTITLE7=Odetta - Go Down Sunshine
TTITLE8=Jack Fessenden - Gymnopedie No 1
TTITLE9=Joe Callicott - Frankie And Albert
TTITLE10=Jimmy Lee Williams - Hoot Your Belly
EXTD=
EXTT0=
EXTT1=
EXTT2=
EXTT3=
EXTT4=
EXTT5=
EXTT6=
EXTT7=
EXTT8=
EXTT9=
EXTT10=
PLAYORDER=
